HIERARCHY
ROOT Hips
{
	OFFSET 0.00000 0.00000 0.00000
	CHANNELS 6 Xposition Yposition Zposition Zrotation Yrotation Xrotation 
	JOINT LHipJoint
	{
		OFFSET 0 0 0
		CHANNELS 3 Zrotation Yrotation Xrotation
		JOINT LeftUpLeg
		{
			OFFSET 1.62964 -1.40469 0.78906
			CHANNELS 3 Zrotation Yrotation Xrotation
			JOINT LeftLeg
			{
				OFFSET 2.29640 -6.30932 0.00000
				CHANNELS 3 Zrotation Yrotation Xrotation
				JOINT LeftFoot
				{
					OFFSET 2.29451 -6.30412 0.00000
					CHANNELS 3 Zrotation Yrotation Xrotation
					JOINT LeftToeBase
					{
						OFFSET 0.03611 -0.09921 1.56387
						CHANNELS 3 Zrotation Yrotation Xrotation
						End Site
						{
							OFFSET 0.00000 -0.00000 0.80291
						}
					}
				}
			}
		}
	}
	JOINT RHipJoint
	{
		OFFSET 0 0 0
		CHANNELS 3 Zrotation Yrotation Xrotation
		JOINT RightUpLeg
		{
			OFFSET -1.73712 -1.40469 0.78906
			CHANNELS 3 Zrotation Yrotation Xrotation
			JOINT RightLeg
			{
				OFFSET -2.28137 -6.26801 0.00000
				CHANNELS 3 Zrotation Yrotation Xrotation
				JOINT RightFoot
				{
					OFFSET -2.28681 -6.28298 0.00000
					CHANNELS 3 Zrotation Yrotation Xrotation
					JOINT RightToeBase
					{
						OFFSET -0.15927 -0.43759 1.61103
						CHANNELS 3 Zrotation Yrotation Xrotation
						End Site
						{
							OFFSET -0.00000 -0.00000 0.84630
						}
					}
				}
			}
		}
	}
	JOINT LowerBack
	{
		OFFSET 0 0 0
		CHANNELS 3 Zrotation Yrotation Xrotation
		JOINT Spine
		{
			OFFSET -0.04227 2.04338 -0.00225
			CHANNELS 3 Zrotation Yrotation Xrotation
			JOINT Spine1
			{
				OFFSET -0.02148 2.04482 -0.04273
				CHANNELS 3 Zrotation Yrotation Xrotation
				JOINT Neck
				{
					OFFSET 0 0 0
					CHANNELS 3 Zrotation Yrotation Xrotation
					JOINT Neck1
					{
						OFFSET 0.09180 1.44629 0.19359
						CHANNELS 3 Zrotation Yrotation Xrotation
						JOINT Head
						{
							OFFSET 0.00887 1.40645 0.14750
							CHANNELS 3 Zrotation Yrotation Xrotation
							End Site
							{
								OFFSET -0.00669 1.50671 0.03707
							}
						}
					}
				}
				JOINT LeftShoulder
				{
					OFFSET 0 0 0
					CHANNELS 3 Zrotation Yrotation Xrotation
					JOINT LeftArm
					{
						OFFSET 2.17674 1.86763 -0.06520
						CHANNELS 3 Zrotation Yrotation Xrotation
						JOINT LeftForeArm
						{
							OFFSET 4.65776 -0.00000 0.00000
							CHANNELS 3 Zrotation Yrotation Xrotation
							JOINT LeftHand
							{
								OFFSET 3.55539 -0.00000 0.00000
								CHANNELS 3 Zrotation Yrotation Xrotation
								JOINT LeftFingerBase
								{
									OFFSET 0 0 0
									CHANNELS 3 Zrotation Yrotation Xrotation
									JOINT LeftHandIndex1
									{
										OFFSET 0.70726 -0.00000 0.00000
										CHANNELS 3 Zrotation Yrotation Xrotation
										End Site
										{
											OFFSET 0.57022 -0.00000 0.00000
										}
									}
								}
								JOINT LThumb
								{
									OFFSET 0 0 0
									CHANNELS 3 Zrotation Yrotation Xrotation
									End Site
									{
										OFFSET 0.57892 -0.00000 0.57892
									}
								}
							}
						}
					}
				}
				JOINT RightShoulder
				{
					OFFSET 0 0 0
					CHANNELS 3 Zrotation Yrotation Xrotation
					JOINT RightArm
					{
						OFFSET -2.80694 1.55459 -0.32496
						CHANNELS 3 Zrotation Yrotation Xrotation
						JOINT RightForeArm
						{
							OFFSET -4.71925 -0.00000 -0.00000
							CHANNELS 3 Zrotation Yrotation Xrotation
							JOINT RightHand
							{
								OFFSET -3.56990 -0.00000 0.00000
								CHANNELS 3 Zrotation Yrotation Xrotation
								JOINT RightFingerBase
								{
									OFFSET 0 0 0
									CHANNELS 3 Zrotation Yrotation Xrotation
									JOINT RightHandIndex1
									{
										OFFSET -0.50776 -0.00000 0.00000
										CHANNELS 3 Zrotation Yrotation Xrotation
										End Site
										{
											OFFSET -0.40937 -0.00000 0.00000
										}
									}
								}
								JOINT RThumb
								{
									OFFSET 0 0 0
									CHANNELS 3 Zrotation Yrotation Xrotation
									End Site
									{
										OFFSET -0.41562 -0.00000 0.41562
									}
								}
							}
						}
					}
				}
			}
		}
	}
}
MOTION
Frames: 11
Frame Time: .0083333
9.4725 16.3036 20.0453 178.9940 -3.4653 -147.2520 0.0000 0.0000 0.0000 -10.8695 -25.0153 -32.7034 1.0718 6.5810 18.4800 0.4922 -0.2168 -13.1814 3.0943 -10.8462 -31.7629 0.0000 0.0000 0.0000 12.6267 21.8255 -32.3177 -0.9997 -6.3629 17.8409 -1.6587 -1.9397 -25.1017 -2.5164 9.8677 -28.5494 -5.6405 -2.3185 -25.9497 -0.3097 -2.1816 -3.0887 2.0690 -1.5852 11.1711 8.4853 -5.4745 -8.6970 -12.8427 -8.3804 0.5443 -5.4594 -4.6346 0.6800 -0.0000 -0.0000 0.0000 -77.1138 4.2127 37.7660 15.7568 -25.1898 -3.5418 -0.0000 -0.0000 1.1658 23.6729 -12.4103 -5.3824 -7.1250 0.0000 -0.0000 -2.4761 16.4776 1.6737 -0.0000 -0.0000 0.0000 88.9600 -8.4048 17.6953 -20.3439 31.0545 -5.7077 0.0000 -0.0000 -3.5937 -13.3381 -48.6478 10.0916 7.1250 -0.0000 -0.0000 50.8447 -74.3831 -37.4608
9.4798 16.2929 20.0673 178.8440 -3.7919 -147.0360 0.0000 0.0000 0.0000 -10.5619 -25.6652 -33.8973 1.2723 7.1490 20.1575 0.5395 -0.3967 -13.7458 3.1650 -10.9574 -32.1365 0.0000 0.0000 0.0000 12.3317 21.9049 -33.2481 -1.1326 -6.7590 19.0034 -1.7365 -2.0808 -25.7232 -2.5229 9.8793 -28.5869 -5.6656 -2.3891 -25.6507 -0.3356 -2.2366 -2.9133 2.0420 -1.5979 11.2204 8.9780 -6.2225 -8.5385 -11.8286 -9.4273 0.0152 -5.2057 -5.1003 0.4040 -0.0000 -0.0000 0.0000 -76.8821 3.8919 37.7187 15.7054 -25.1195 -3.5200 -0.0000 -0.0000 1.4407 23.0467 -12.3124 -5.1837 -7.1250 0.0000 -0.0000 -2.9056 16.6472 1.9540 -0.0000 -0.0000 0.0000 88.9481 -8.2227 17.5456 -20.3877 31.1066 -5.7303 0.0000 -0.0000 -3.5646 -13.4240 -49.0346 10.2165 7.1250 -0.0000 -0.0000 51.9810 -74.6237 -38.6296
9.4845 16.2755 20.0920 178.8170 -4.0559 -146.7050 0.0000 0.0000 0.0000 -10.0846 -26.1684 -35.4363 1.5223 7.7909 22.0807 0.5923 -0.6417 -14.3334 3.2373 -11.0696 -32.5149 0.0000 0.0000 0.0000 12.1134 21.9663 -34.4636 -1.2969 -7.2153 20.3547 -1.8222 -2.0984 -26.3360 -2.5965 10.0114 -29.0135 -5.7562 -2.4845 -25.6391 -0.1452 -2.3037 -2.6771 2.2827 -1.6277 11.5051 8.5435 -6.6225 -8.2620 -11.2405 -9.9974 -0.7728 -4.9239 -5.3705 0.1170 -0.0000 -0.0000 0.0000 -77.0888 3.3621 37.3869 15.6158 -24.9970 -3.4820 -0.0000 -0.0000 1.9217 24.3997 -13.2940 -5.9548 -7.1250 0.0000 -0.0000 -2.0259 15.4412 1.4143 -0.0000 -0.0000 0.0000 88.5839 -8.0496 17.5397 -20.6022 31.3610 -5.8415 0.0000 -0.0000 -3.7343 -13.6578 -48.9911 10.3906 7.1250 -0.0000 -0.0000 51.6554 -74.6895 -38.4231
9.4878 16.2485 20.1298 178.8600 -4.0771 -146.1500 0.0000 0.0000 0.0000 -9.4542 -26.4836 -37.5174 1.8299 8.5025 24.2511 0.6469 -0.8137 -14.9393 3.5716 -11.5675 -34.2185 0.0000 0.0000 0.0000 11.7757 22.1003 -36.2635 -1.5184 -7.7813 22.0518 -1.9198 -1.8048 -26.8913 -2.6352 10.0796 -29.2349 -5.3712 -2.3104 -24.7720 -0.2919 -2.2894 -3.1552 1.9391 -1.5967 10.4746 8.8211 -6.5719 -8.3184 -11.3483 -9.9328 -0.6123 -5.0068 -5.3377 0.1608 0.0000 0.0000 0.0000 -76.7445 3.9840 37.2820 15.6797 -25.0844 -3.5091 -0.0000 -0.0000 2.0235 25.0337 -13.4755 -6.2111 -7.1250 0.0000 -0.0000 -1.6031 15.1698 1.1282 0.0000 0.0000 0.0000 88.7133 -8.9607 17.6677 -20.9211 31.7361 -6.0084 0.0000 -0.0000 -3.7229 -13.8370 -48.7550 10.4922 7.1250 -0.0000 -0.0000 50.7645 -74.6305 -37.6306
9.4883 16.2066 20.1805 179.0440 -3.8032 -145.1690 0.0000 0.0000 0.0000 -8.4400 -26.6622 -40.3463 2.1791 9.2295 26.5159 0.7063 -0.9709 -15.5778 3.5575 -11.5470 -34.1478 0.0000 0.0000 0.0000 11.2159 22.5169 -38.9406 -1.8275 -8.4972 24.2347 -2.0386 -1.1835 -27.4534 -2.6308 10.0719 -29.2099 -5.1217 -2.1136 -25.1026 -0.2895 -2.0957 -3.1921 1.8546 -1.5039 10.5845 8.4872 -6.5543 -8.3268 -10.9100 -9.8733 -0.6877 -4.8213 -5.2971 0.1828 -0.0000 -0.0000 0.0000 -76.6380 3.6115 37.0902 15.5982 -24.9729 -3.4746 -0.0000 -0.0000 2.1355 24.5208 -13.1190 -5.9112 -7.1250 0.0000 -0.0000 -1.9317 15.6174 1.3411 -0.0000 -0.0000 0.0000 88.5744 -8.7839 17.7683 -21.0437 31.8793 -6.0730 0.0000 -0.0000 -3.7422 -14.4325 -49.4877 11.0708 7.1250 -0.0000 -0.0000 52.6625 -75.2452 -39.7986
9.4903 16.1701 20.2074 178.9070 -4.0678 -145.0710 0.0000 0.0000 0.0000 -8.1561 -27.0576 -41.7565 2.5100 9.8561 28.5120 0.7614 -1.4811 -16.0491 3.3733 -11.2761 -33.2169 0.0000 0.0000 0.0000 10.9882 22.3560 -40.0158 -2.0585 -8.9869 25.7543 -2.1525 -1.0782 -28.1619 -2.7127 10.2147 -29.6748 -4.9906 -2.0895 -23.7880 -0.3416 -2.1994 -3.5634 1.7368 -1.5311 9.4709 8.5796 -6.5063 -8.3079 -10.9664 -9.7954 -0.5615 -4.8554 -5.2555 0.2173 0.0000 -0.0000 0.0000 -76.4843 4.1974 36.9419 15.5494 -24.9059 -3.4540 -0.0000 -0.0000 2.3723 23.2554 -12.1894 -5.1847 -7.1250 0.0000 -0.0000 -2.7547 16.7587 1.8455 0.0000 -0.0000 0.0000 88.5268 -9.4651 17.7894 -21.1289 31.9785 -6.1180 0.0000 -0.0000 -3.8224 -14.7506 -49.8892 11.3850 7.1250 -0.0000 -0.0000 53.7919 -75.5690 -41.0665
9.4957 16.1255 20.2386 178.8840 -4.3170 -144.9090 0.0000 0.0000 0.0000 -7.6733 -27.3897 -43.3118 2.8771 10.4934 30.5899 0.8114 -1.9430 -16.4723 3.4241 -11.3518 -33.4757 0.0000 0.0000 0.0000 10.8408 22.2831 -41.2599 -2.3260 -9.5145 27.4185 -2.2803 -0.8087 -28.8834 -2.7875 10.3429 -30.0945 -4.9570 -2.1365 -23.5647 -0.2586 -2.2123 -3.2267 1.8076 -1.5177 9.7367 8.1364 -6.4979 -8.3603 -10.4201 -9.7444 -0.6623 -4.6220 -5.2187 0.2476 0.0000 0.0000 0.0000 -76.4925 3.5937 36.7278 15.4925 -24.8277 -3.4301 -0.0000 -0.0000 2.3360 22.7126 -11.4878 -4.7653 -7.1250 0.0000 -0.0000 -3.1018 17.5662 2.0240 0.0000 0.0000 0.0000 88.3614 -8.9129 17.5421 -21.0949 31.9389 -6.1001 0.0000 -0.0000 -3.7776 -14.3542 -49.1361 10.9532 7.1250 -0.0000 -0.0000 51.5621 -75.0326 -38.6741
9.5050 16.0745 20.2776 178.8690 -4.5782 -144.6380 0.0000 0.0000 0.0000 -7.1184 -27.5926 -45.1003 3.2783 11.1325 32.7282 0.8580 -2.4735 -16.8419 3.4483 -11.3877 -33.5989 0.0000 0.0000 0.0000 10.5873 22.3255 -42.7369 -2.6317 -10.0735 29.2152 -2.4163 -0.3648 -29.5787 -2.6712 10.1428 -29.4404 -4.7974 -2.0920 -22.4270 -0.2845 -2.2826 -3.5730 1.7111 -1.5325 8.7438 8.2012 -6.4688 -8.2191 -10.3695 -9.6808 -0.5994 -4.6121 -5.1769 0.2486 0.0000 0.0000 0.0000 -76.2374 4.1617 36.8367 15.6123 -24.9921 -3.4805 -0.0000 -0.0000 2.1792 23.0248 -11.7045 -4.9275 -7.1250 0.0000 -0.0000 -2.8928 17.3037 1.9039 0.0000 0.0000 0.0000 88.3118 -9.7152 17.8078 -21.4554 32.3561 -6.2919 0.0000 -0.0000 -4.0234 -13.8740 -48.5333 10.4858 7.1250 -0.0000 -0.0000 50.0438 -74.5226 -36.9365
9.5125 16.0172 20.3157 178.7950 -4.9091 -144.4400 0.0000 0.0000 0.0000 -6.7373 -27.6347 -46.7923 3.6921 11.7391 34.8150 0.8959 -3.5001 -17.0507 2.9381 -10.5942 -30.9231 0.0000 0.0000 0.0000 10.3040 22.3223 -44.0418 -2.9207 -10.5656 30.8284 -2.5388 -0.0985 -30.2360 -2.5412 9.9124 -28.6935 -4.7477 -2.1541 -22.0594 -0.2473 -2.3308 -3.2857 1.7169 -1.5347 8.8726 7.8769 -6.4405 -8.3638 -9.8968 -9.6174 -0.6491 -4.4252 -5.1380 0.2999 -0.0000 0.0000 0.0000 -76.1605 3.7031 36.5849 15.6391 -25.0288 -3.4919 -0.0000 -0.0000 2.2386 23.0396 -12.2375 -5.1511 -7.1250 0.0000 -0.0000 -2.9069 16.7285 1.9497 -0.0000 0.0000 0.0000 88.1896 -9.5766 18.1899 -21.9158 32.8817 -6.5401 0.0000 -0.0000 -4.3253 -14.6029 -50.0727 11.2985 7.1250 -0.0000 -0.0000 54.5396 -75.6005 -41.7337
9.5124 15.9357 20.3492 179.0770 -4.6597 -143.9450 0.0000 0.0000 0.0000 -6.0249 -27.2868 -48.8617 4.1121 12.3080 36.8306 0.9417 -4.1999 -17.4114 2.5243 -9.8820 -28.5954 0.0000 0.0000 0.0000 10.0335 22.7514 -45.9214 -3.2846 -11.1421 32.7607 -2.6631 0.3983 -30.8207 -2.5185 9.8714 -28.5613 -4.3910 -1.8911 -21.6672 -0.2656 -2.0945 -3.4035 1.5786 -1.4056 8.5051 7.6860 -6.4427 -8.3494 -9.6249 -9.5818 -0.5676 -4.3154 -5.1101 0.3460 -0.0000 0.0000 0.0000 -76.0808 3.7749 36.3426 15.7460 -25.1751 -3.5372 -0.0000 -0.0000 2.2544 22.8032 -12.4120 -5.1636 -7.1250 0.0000 -0.0000 -3.0793 16.5646 2.0766 -0.0000 0.0000 0.0000 88.1416 -9.8212 18.3171 -22.1092 33.1002 -6.6454 0.0000 -0.0000 -4.1437 -15.1872 -49.6987 11.6964 7.1250 -0.0000 -0.0000 52.8042 -75.6444 -40.3024
9.5234 15.8559 20.3851 179.0310 -4.7575 -143.6660 0.0000 0.0000 0.0000 -5.5912 -27.3111 -50.6059 4.5667 12.8786 38.9158 0.9959 -4.9300 -17.8562 2.3971 -9.6483 -27.8453 0.0000 0.0000 0.0000 9.7615 22.7217 -47.4923 -3.6679 -11.7049 34.6959 -2.8034 0.7250 -31.5384 -2.5045 9.8461 -28.4799 -4.4889 -1.8776 -21.1277 -0.2010 -2.0544 -3.3273 1.7323 -1.3749 8.3046 7.4498 -6.4353 -8.3428 -8.9462 -9.5407 -0.6714 -4.5090 -5.0728 0.3991 0.0000 -0.0000 0.0000 -76.0967 3.5136 36.2451 15.7949 -25.2418 -3.5581 -0.0000 -0.0000 2.1198 22.8563 -12.4777 -5.2037 -7.1250 0.0000 -0.0000 -3.0456 16.4888 2.0588 0.0000 -0.0000 0.0000 87.9396 -9.8431 18.4811 -22.2626 33.2725 -6.7293 0.0000 -0.0000 -4.1690 -15.5538 -48.7957 11.8274 7.1250 -0.0000 -0.0000 49.4661 -75.3108 -37.1966
